<mxfile host="app.diagrams.net" agent="Mozilla/5.0 (Macintosh; Intel Mac OS X 10_15_7) AppleWebKit/537.36 (KHTML, like Gecko) Chrome/133.0.0.0 Safari/537.36" version="26.0.11">
  <diagram name="StrÃ¡nka-1" id="kkc76dls5YAC0644aDbL">
    <mxGraphModel dx="717" dy="1550" grid="1" gridSize="10" guides="1" tooltips="1" connect="1" arrows="1" fold="1" page="1" pageScale="1" pageWidth="827" pageHeight="1169" math="0" shadow="0">
      <root>
        <mxCell id="0" />
        <mxCell id="1" parent="0" />
        <mxCell id="tL1ipXAXYH468xp2Y8CK-234" value="f" style="rounded=0;whiteSpace=wrap;html=1;fontStyle=1" parent="1" vertex="1">
          <mxGeometry x="379" y="20" width="20" height="20" as="geometry" />
        </mxCell>
        <mxCell id="tL1ipXAXYH468xp2Y8CK-235" value="g" style="rounded=0;whiteSpace=wrap;html=1;fontStyle=1" parent="1" vertex="1">
          <mxGeometry x="379" y="40" width="20" height="20" as="geometry" />
        </mxCell>
        <mxCell id="tL1ipXAXYH468xp2Y8CK-236" value="h" style="rounded=0;whiteSpace=wrap;html=1;fontStyle=1" parent="1" vertex="1">
          <mxGeometry x="379" y="60" width="20" height="20" as="geometry" />
        </mxCell>
        <mxCell id="tL1ipXAXYH468xp2Y8CK-237" value="i" style="rounded=0;whiteSpace=wrap;html=1;fontStyle=1" parent="1" vertex="1">
          <mxGeometry x="379" y="80" width="20" height="20" as="geometry" />
        </mxCell>
        <mxCell id="tL1ipXAXYH468xp2Y8CK-238" value="b" style="rounded=0;whiteSpace=wrap;html=1;fontStyle=1" parent="1" vertex="1">
          <mxGeometry x="379" y="-60" width="20" height="20" as="geometry" />
        </mxCell>
        <mxCell id="tL1ipXAXYH468xp2Y8CK-239" value="c" style="rounded=0;whiteSpace=wrap;html=1;fontStyle=1" parent="1" vertex="1">
          <mxGeometry x="379" y="-40" width="20" height="20" as="geometry" />
        </mxCell>
        <mxCell id="tL1ipXAXYH468xp2Y8CK-240" value="d" style="rounded=0;whiteSpace=wrap;html=1;fontStyle=1" parent="1" vertex="1">
          <mxGeometry x="379" y="-20" width="20" height="20" as="geometry" />
        </mxCell>
        <mxCell id="tL1ipXAXYH468xp2Y8CK-241" value="e" style="rounded=0;whiteSpace=wrap;html=1;fontStyle=1" parent="1" vertex="1">
          <mxGeometry x="379" width="20" height="20" as="geometry" />
        </mxCell>
        <mxCell id="tL1ipXAXYH468xp2Y8CK-242" value="j" style="rounded=0;whiteSpace=wrap;html=1;fontStyle=1" parent="1" vertex="1">
          <mxGeometry x="379" y="100" width="20" height="20" as="geometry" />
        </mxCell>
        <mxCell id="tL1ipXAXYH468xp2Y8CK-243" value="k" style="rounded=0;whiteSpace=wrap;html=1;fontStyle=1" parent="1" vertex="1">
          <mxGeometry x="379" y="120" width="20" height="20" as="geometry" />
        </mxCell>
        <mxCell id="tL1ipXAXYH468xp2Y8CK-244" value="l" style="rounded=0;whiteSpace=wrap;html=1;fontStyle=1" parent="1" vertex="1">
          <mxGeometry x="379" y="140" width="20" height="20" as="geometry" />
        </mxCell>
        <mxCell id="tL1ipXAXYH468xp2Y8CK-245" value="m" style="rounded=0;whiteSpace=wrap;html=1;fontStyle=1" parent="1" vertex="1">
          <mxGeometry x="379" y="160" width="20" height="20" as="geometry" />
        </mxCell>
        <mxCell id="tL1ipXAXYH468xp2Y8CK-246" value="s" style="rounded=0;whiteSpace=wrap;html=1;fontStyle=1" parent="1" vertex="1">
          <mxGeometry x="480" y="20" width="20" height="20" as="geometry" />
        </mxCell>
        <mxCell id="tL1ipXAXYH468xp2Y8CK-247" value="t" style="rounded=0;whiteSpace=wrap;html=1;fontStyle=1" parent="1" vertex="1">
          <mxGeometry x="480" y="40" width="20" height="20" as="geometry" />
        </mxCell>
        <mxCell id="tL1ipXAXYH468xp2Y8CK-248" value="u" style="rounded=0;whiteSpace=wrap;html=1;fontStyle=1" parent="1" vertex="1">
          <mxGeometry x="480" y="60" width="20" height="20" as="geometry" />
        </mxCell>
        <mxCell id="tL1ipXAXYH468xp2Y8CK-249" value="v" style="rounded=0;whiteSpace=wrap;html=1;fontStyle=1" parent="1" vertex="1">
          <mxGeometry x="480" y="80" width="20" height="20" as="geometry" />
        </mxCell>
        <mxCell id="tL1ipXAXYH468xp2Y8CK-250" value="o" style="rounded=0;whiteSpace=wrap;html=1;fontStyle=1" parent="1" vertex="1">
          <mxGeometry x="480" y="-60" width="20" height="20" as="geometry" />
        </mxCell>
        <mxCell id="tL1ipXAXYH468xp2Y8CK-251" value="p" style="rounded=0;whiteSpace=wrap;html=1;fontStyle=1" parent="1" vertex="1">
          <mxGeometry x="480" y="-40" width="20" height="20" as="geometry" />
        </mxCell>
        <mxCell id="tL1ipXAXYH468xp2Y8CK-252" value="q" style="rounded=0;whiteSpace=wrap;html=1;fontStyle=1" parent="1" vertex="1">
          <mxGeometry x="480" y="-20" width="20" height="20" as="geometry" />
        </mxCell>
        <mxCell id="tL1ipXAXYH468xp2Y8CK-253" value="r" style="rounded=0;whiteSpace=wrap;html=1;fontStyle=1" parent="1" vertex="1">
          <mxGeometry x="480" width="20" height="20" as="geometry" />
        </mxCell>
        <mxCell id="tL1ipXAXYH468xp2Y8CK-254" value="w" style="rounded=0;whiteSpace=wrap;html=1;fontStyle=1" parent="1" vertex="1">
          <mxGeometry x="480" y="100" width="20" height="20" as="geometry" />
        </mxCell>
        <mxCell id="tL1ipXAXYH468xp2Y8CK-255" value="x" style="rounded=0;whiteSpace=wrap;html=1;fontStyle=1" parent="1" vertex="1">
          <mxGeometry x="480" y="120" width="20" height="20" as="geometry" />
        </mxCell>
        <mxCell id="tL1ipXAXYH468xp2Y8CK-256" value="y" style="rounded=0;whiteSpace=wrap;html=1;fontStyle=1" parent="1" vertex="1">
          <mxGeometry x="480" y="140" width="20" height="20" as="geometry" />
        </mxCell>
        <mxCell id="tL1ipXAXYH468xp2Y8CK-257" value="z" style="rounded=0;whiteSpace=wrap;html=1;fontStyle=1" parent="1" vertex="1">
          <mxGeometry x="480" y="160" width="20" height="20" as="geometry" />
        </mxCell>
        <mxCell id="tL1ipXAXYH468xp2Y8CK-258" value="a" style="rounded=0;whiteSpace=wrap;html=1;fontStyle=1" parent="1" vertex="1">
          <mxGeometry x="379" y="-80" width="20" height="20" as="geometry" />
        </mxCell>
        <mxCell id="tL1ipXAXYH468xp2Y8CK-259" value="n" style="rounded=0;whiteSpace=wrap;html=1;fontStyle=1" parent="1" vertex="1">
          <mxGeometry x="480" y="-80" width="20" height="20" as="geometry" />
        </mxCell>
        <mxCell id="tL1ipXAXYH468xp2Y8CK-310" style="edgeStyle=orthogonalEdgeStyle;rounded=0;orthogonalLoop=1;jettySize=auto;html=1;exitX=1;exitY=0.5;exitDx=0;exitDy=0;entryX=0;entryY=0.5;entryDx=0;entryDy=0;strokeColor=#6c8ebf;align=center;verticalAlign=middle;fontFamily=Helvetica;fontSize=11;fontColor=default;labelBackgroundColor=default;endArrow=open;endFill=0;fillColor=#dae8fc;" parent="1" source="tL1ipXAXYH468xp2Y8CK-260" target="tL1ipXAXYH468xp2Y8CK-87" edge="1">
          <mxGeometry relative="1" as="geometry" />
        </mxCell>
        <mxCell id="tL1ipXAXYH468xp2Y8CK-260" value="5" style="rounded=0;whiteSpace=wrap;html=1;" parent="1" vertex="1">
          <mxGeometry x="399" y="20" width="20" height="20" as="geometry" />
        </mxCell>
        <mxCell id="tL1ipXAXYH468xp2Y8CK-311" style="edgeStyle=orthogonalEdgeStyle;rounded=0;orthogonalLoop=1;jettySize=auto;html=1;exitX=1;exitY=0.5;exitDx=0;exitDy=0;entryX=0;entryY=0.5;entryDx=0;entryDy=0;strokeColor=#6c8ebf;align=center;verticalAlign=middle;fontFamily=Helvetica;fontSize=11;fontColor=default;labelBackgroundColor=default;endArrow=open;endFill=0;fillColor=#dae8fc;" parent="1" source="tL1ipXAXYH468xp2Y8CK-261" target="tL1ipXAXYH468xp2Y8CK-148" edge="1">
          <mxGeometry relative="1" as="geometry" />
        </mxCell>
        <mxCell id="tL1ipXAXYH468xp2Y8CK-261" value="6" style="rounded=0;whiteSpace=wrap;html=1;" parent="1" vertex="1">
          <mxGeometry x="399" y="40" width="20" height="20" as="geometry" />
        </mxCell>
        <mxCell id="tL1ipXAXYH468xp2Y8CK-312" style="edgeStyle=orthogonalEdgeStyle;rounded=0;orthogonalLoop=1;jettySize=auto;html=1;exitX=1;exitY=0.5;exitDx=0;exitDy=0;entryX=0;entryY=0.5;entryDx=0;entryDy=0;strokeColor=#6c8ebf;align=center;verticalAlign=middle;fontFamily=Helvetica;fontSize=11;fontColor=default;labelBackgroundColor=default;endArrow=open;endFill=0;fillColor=#dae8fc;" parent="1" source="tL1ipXAXYH468xp2Y8CK-262" target="tL1ipXAXYH468xp2Y8CK-112" edge="1">
          <mxGeometry relative="1" as="geometry" />
        </mxCell>
        <mxCell id="tL1ipXAXYH468xp2Y8CK-262" value="7" style="rounded=0;whiteSpace=wrap;html=1;" parent="1" vertex="1">
          <mxGeometry x="399" y="60" width="20" height="20" as="geometry" />
        </mxCell>
        <mxCell id="tL1ipXAXYH468xp2Y8CK-313" style="edgeStyle=orthogonalEdgeStyle;rounded=0;orthogonalLoop=1;jettySize=auto;html=1;exitX=1;exitY=0.5;exitDx=0;exitDy=0;entryX=0;entryY=0.5;entryDx=0;entryDy=0;strokeColor=#6c8ebf;align=center;verticalAlign=middle;fontFamily=Helvetica;fontSize=11;fontColor=default;labelBackgroundColor=default;endArrow=open;endFill=0;fillColor=#dae8fc;" parent="1" source="tL1ipXAXYH468xp2Y8CK-263" target="tL1ipXAXYH468xp2Y8CK-118" edge="1">
          <mxGeometry relative="1" as="geometry" />
        </mxCell>
        <mxCell id="tL1ipXAXYH468xp2Y8CK-263" value="8" style="rounded=0;whiteSpace=wrap;html=1;" parent="1" vertex="1">
          <mxGeometry x="399" y="80" width="20" height="20" as="geometry" />
        </mxCell>
        <mxCell id="tL1ipXAXYH468xp2Y8CK-306" style="edgeStyle=orthogonalEdgeStyle;rounded=0;orthogonalLoop=1;jettySize=auto;html=1;exitX=1;exitY=0.5;exitDx=0;exitDy=0;entryX=0;entryY=0.5;entryDx=0;entryDy=0;endArrow=open;endFill=0;strokeColor=#6c8ebf;align=center;verticalAlign=middle;fontFamily=Helvetica;fontSize=11;fontColor=default;labelBackgroundColor=default;fillColor=#dae8fc;" parent="1" source="tL1ipXAXYH468xp2Y8CK-264" target="tL1ipXAXYH468xp2Y8CK-81" edge="1">
          <mxGeometry relative="1" as="geometry" />
        </mxCell>
        <mxCell id="tL1ipXAXYH468xp2Y8CK-264" value="1" style="rounded=0;whiteSpace=wrap;html=1;" parent="1" vertex="1">
          <mxGeometry x="399" y="-60" width="20" height="20" as="geometry" />
        </mxCell>
        <mxCell id="tL1ipXAXYH468xp2Y8CK-307" style="edgeStyle=orthogonalEdgeStyle;rounded=0;orthogonalLoop=1;jettySize=auto;html=1;exitX=1;exitY=0.5;exitDx=0;exitDy=0;entryX=0;entryY=0.5;entryDx=0;entryDy=0;strokeColor=#6c8ebf;align=center;verticalAlign=middle;fontFamily=Helvetica;fontSize=11;fontColor=default;labelBackgroundColor=default;endArrow=open;endFill=0;fillColor=#dae8fc;" parent="1" source="tL1ipXAXYH468xp2Y8CK-265" target="tL1ipXAXYH468xp2Y8CK-105" edge="1">
          <mxGeometry relative="1" as="geometry" />
        </mxCell>
        <mxCell id="tL1ipXAXYH468xp2Y8CK-265" value="2" style="rounded=0;whiteSpace=wrap;html=1;" parent="1" vertex="1">
          <mxGeometry x="399" y="-40" width="20" height="20" as="geometry" />
        </mxCell>
        <mxCell id="tL1ipXAXYH468xp2Y8CK-308" style="edgeStyle=orthogonalEdgeStyle;rounded=0;orthogonalLoop=1;jettySize=auto;html=1;exitX=1;exitY=0.5;exitDx=0;exitDy=0;entryX=0;entryY=0.5;entryDx=0;entryDy=0;strokeColor=#6c8ebf;align=center;verticalAlign=middle;fontFamily=Helvetica;fontSize=11;fontColor=default;labelBackgroundColor=default;endArrow=open;endFill=0;fillColor=#dae8fc;" parent="1" source="tL1ipXAXYH468xp2Y8CK-266" target="tL1ipXAXYH468xp2Y8CK-99" edge="1">
          <mxGeometry relative="1" as="geometry" />
        </mxCell>
        <mxCell id="tL1ipXAXYH468xp2Y8CK-266" value="3" style="rounded=0;whiteSpace=wrap;html=1;" parent="1" vertex="1">
          <mxGeometry x="399" y="-20" width="20" height="20" as="geometry" />
        </mxCell>
        <mxCell id="tL1ipXAXYH468xp2Y8CK-309" style="edgeStyle=orthogonalEdgeStyle;rounded=0;orthogonalLoop=1;jettySize=auto;html=1;exitX=1;exitY=0.5;exitDx=0;exitDy=0;entryX=0;entryY=0.5;entryDx=0;entryDy=0;strokeColor=#6c8ebf;align=center;verticalAlign=middle;fontFamily=Helvetica;fontSize=11;fontColor=default;labelBackgroundColor=default;endArrow=open;endFill=0;fillColor=#dae8fc;" parent="1" source="tL1ipXAXYH468xp2Y8CK-267" target="tL1ipXAXYH468xp2Y8CK-93" edge="1">
          <mxGeometry relative="1" as="geometry" />
        </mxCell>
        <mxCell id="tL1ipXAXYH468xp2Y8CK-267" value="4" style="rounded=0;whiteSpace=wrap;html=1;" parent="1" vertex="1">
          <mxGeometry x="399" width="20" height="20" as="geometry" />
        </mxCell>
        <mxCell id="tL1ipXAXYH468xp2Y8CK-314" style="edgeStyle=orthogonalEdgeStyle;rounded=0;orthogonalLoop=1;jettySize=auto;html=1;exitX=1;exitY=0.5;exitDx=0;exitDy=0;entryX=0;entryY=0.5;entryDx=0;entryDy=0;strokeColor=#6c8ebf;align=center;verticalAlign=middle;fontFamily=Helvetica;fontSize=11;fontColor=default;labelBackgroundColor=default;endArrow=open;endFill=0;fillColor=#dae8fc;" parent="1" source="tL1ipXAXYH468xp2Y8CK-268" target="tL1ipXAXYH468xp2Y8CK-142" edge="1">
          <mxGeometry relative="1" as="geometry" />
        </mxCell>
        <mxCell id="tL1ipXAXYH468xp2Y8CK-268" value="9" style="rounded=0;whiteSpace=wrap;html=1;" parent="1" vertex="1">
          <mxGeometry x="399" y="100" width="20" height="20" as="geometry" />
        </mxCell>
        <mxCell id="tL1ipXAXYH468xp2Y8CK-315" style="edgeStyle=orthogonalEdgeStyle;rounded=0;orthogonalLoop=1;jettySize=auto;html=1;exitX=1;exitY=0.5;exitDx=0;exitDy=0;entryX=0;entryY=0.5;entryDx=0;entryDy=0;strokeColor=#6c8ebf;align=center;verticalAlign=middle;fontFamily=Helvetica;fontSize=11;fontColor=default;labelBackgroundColor=default;endArrow=open;endFill=0;fillColor=#dae8fc;" parent="1" source="tL1ipXAXYH468xp2Y8CK-269" target="tL1ipXAXYH468xp2Y8CK-136" edge="1">
          <mxGeometry relative="1" as="geometry" />
        </mxCell>
        <mxCell id="tL1ipXAXYH468xp2Y8CK-269" value="10" style="rounded=0;whiteSpace=wrap;html=1;" parent="1" vertex="1">
          <mxGeometry x="399" y="120" width="20" height="20" as="geometry" />
        </mxCell>
        <mxCell id="tL1ipXAXYH468xp2Y8CK-316" style="edgeStyle=orthogonalEdgeStyle;rounded=0;orthogonalLoop=1;jettySize=auto;html=1;exitX=1;exitY=0.5;exitDx=0;exitDy=0;entryX=0;entryY=0.5;entryDx=0;entryDy=0;strokeColor=#6c8ebf;align=center;verticalAlign=middle;fontFamily=Helvetica;fontSize=11;fontColor=default;labelBackgroundColor=default;endArrow=open;endFill=0;fillColor=#dae8fc;" parent="1" source="tL1ipXAXYH468xp2Y8CK-270" target="tL1ipXAXYH468xp2Y8CK-130" edge="1">
          <mxGeometry relative="1" as="geometry" />
        </mxCell>
        <mxCell id="tL1ipXAXYH468xp2Y8CK-270" value="11" style="rounded=0;whiteSpace=wrap;html=1;" parent="1" vertex="1">
          <mxGeometry x="399" y="140" width="20" height="20" as="geometry" />
        </mxCell>
        <mxCell id="tL1ipXAXYH468xp2Y8CK-317" style="edgeStyle=orthogonalEdgeStyle;rounded=0;orthogonalLoop=1;jettySize=auto;html=1;exitX=1;exitY=0.5;exitDx=0;exitDy=0;entryX=0;entryY=0.5;entryDx=0;entryDy=0;strokeColor=#6c8ebf;align=center;verticalAlign=middle;fontFamily=Helvetica;fontSize=11;fontColor=default;labelBackgroundColor=default;endArrow=open;endFill=0;fillColor=#dae8fc;" parent="1" source="tL1ipXAXYH468xp2Y8CK-271" target="tL1ipXAXYH468xp2Y8CK-124" edge="1">
          <mxGeometry relative="1" as="geometry" />
        </mxCell>
        <mxCell id="tL1ipXAXYH468xp2Y8CK-271" value="12" style="rounded=0;whiteSpace=wrap;html=1;" parent="1" vertex="1">
          <mxGeometry x="399" y="160" width="20" height="20" as="geometry" />
        </mxCell>
        <mxCell id="tL1ipXAXYH468xp2Y8CK-272" value="0" style="rounded=0;whiteSpace=wrap;html=1;" parent="1" vertex="1">
          <mxGeometry x="399" y="-80" width="20" height="20" as="geometry" />
        </mxCell>
        <mxCell id="tL1ipXAXYH468xp2Y8CK-323" style="edgeStyle=orthogonalEdgeStyle;rounded=0;orthogonalLoop=1;jettySize=auto;html=1;exitX=1;exitY=0.5;exitDx=0;exitDy=0;entryX=0;entryY=0.5;entryDx=0;entryDy=0;strokeColor=#6c8ebf;align=center;verticalAlign=middle;fontFamily=Helvetica;fontSize=11;fontColor=default;labelBackgroundColor=default;endArrow=open;endFill=0;fillColor=#dae8fc;" parent="1" source="tL1ipXAXYH468xp2Y8CK-273" target="tL1ipXAXYH468xp2Y8CK-166" edge="1">
          <mxGeometry relative="1" as="geometry" />
        </mxCell>
        <mxCell id="tL1ipXAXYH468xp2Y8CK-273" value="18" style="rounded=0;whiteSpace=wrap;html=1;" parent="1" vertex="1">
          <mxGeometry x="500" y="20" width="20" height="20" as="geometry" />
        </mxCell>
        <mxCell id="tL1ipXAXYH468xp2Y8CK-324" style="edgeStyle=orthogonalEdgeStyle;rounded=0;orthogonalLoop=1;jettySize=auto;html=1;exitX=1;exitY=0.5;exitDx=0;exitDy=0;entryX=0;entryY=0.5;entryDx=0;entryDy=0;strokeColor=#6c8ebf;align=center;verticalAlign=middle;fontFamily=Helvetica;fontSize=11;fontColor=default;labelBackgroundColor=default;endArrow=open;endFill=0;fillColor=#dae8fc;" parent="1" source="tL1ipXAXYH468xp2Y8CK-274" target="tL1ipXAXYH468xp2Y8CK-226" edge="1">
          <mxGeometry relative="1" as="geometry" />
        </mxCell>
        <mxCell id="tL1ipXAXYH468xp2Y8CK-274" value="19" style="rounded=0;whiteSpace=wrap;html=1;" parent="1" vertex="1">
          <mxGeometry x="500" y="40" width="20" height="20" as="geometry" />
        </mxCell>
        <mxCell id="tL1ipXAXYH468xp2Y8CK-325" style="edgeStyle=orthogonalEdgeStyle;rounded=0;orthogonalLoop=1;jettySize=auto;html=1;exitX=1;exitY=0.5;exitDx=0;exitDy=0;entryX=0;entryY=0.5;entryDx=0;entryDy=0;strokeColor=#6c8ebf;align=center;verticalAlign=middle;fontFamily=Helvetica;fontSize=11;fontColor=default;labelBackgroundColor=default;endArrow=open;endFill=0;fillColor=#dae8fc;" parent="1" source="tL1ipXAXYH468xp2Y8CK-275" target="tL1ipXAXYH468xp2Y8CK-190" edge="1">
          <mxGeometry relative="1" as="geometry" />
        </mxCell>
        <mxCell id="tL1ipXAXYH468xp2Y8CK-275" value="20" style="rounded=0;whiteSpace=wrap;html=1;" parent="1" vertex="1">
          <mxGeometry x="500" y="60" width="20" height="20" as="geometry" />
        </mxCell>
        <mxCell id="tL1ipXAXYH468xp2Y8CK-326" style="edgeStyle=orthogonalEdgeStyle;rounded=0;orthogonalLoop=1;jettySize=auto;html=1;exitX=1;exitY=0.5;exitDx=0;exitDy=0;entryX=0;entryY=0.5;entryDx=0;entryDy=0;strokeColor=#6c8ebf;align=center;verticalAlign=middle;fontFamily=Helvetica;fontSize=11;fontColor=default;labelBackgroundColor=default;endArrow=open;endFill=0;fillColor=#dae8fc;" parent="1" source="tL1ipXAXYH468xp2Y8CK-276" target="tL1ipXAXYH468xp2Y8CK-196" edge="1">
          <mxGeometry relative="1" as="geometry" />
        </mxCell>
        <mxCell id="tL1ipXAXYH468xp2Y8CK-276" value="21" style="rounded=0;whiteSpace=wrap;html=1;" parent="1" vertex="1">
          <mxGeometry x="500" y="80" width="20" height="20" as="geometry" />
        </mxCell>
        <mxCell id="tL1ipXAXYH468xp2Y8CK-319" style="edgeStyle=orthogonalEdgeStyle;rounded=0;orthogonalLoop=1;jettySize=auto;html=1;exitX=1;exitY=0.5;exitDx=0;exitDy=0;entryX=0;entryY=0.5;entryDx=0;entryDy=0;strokeColor=#6c8ebf;align=center;verticalAlign=middle;fontFamily=Helvetica;fontSize=11;fontColor=default;labelBackgroundColor=default;endArrow=open;endFill=0;fillColor=#dae8fc;" parent="1" source="tL1ipXAXYH468xp2Y8CK-277" target="tL1ipXAXYH468xp2Y8CK-160" edge="1">
          <mxGeometry relative="1" as="geometry" />
        </mxCell>
        <mxCell id="tL1ipXAXYH468xp2Y8CK-277" value="14" style="rounded=0;whiteSpace=wrap;html=1;" parent="1" vertex="1">
          <mxGeometry x="500" y="-60" width="20" height="20" as="geometry" />
        </mxCell>
        <mxCell id="tL1ipXAXYH468xp2Y8CK-320" style="edgeStyle=orthogonalEdgeStyle;rounded=0;orthogonalLoop=1;jettySize=auto;html=1;exitX=1;exitY=0.5;exitDx=0;exitDy=0;entryX=0;entryY=0.5;entryDx=0;entryDy=0;strokeColor=#6c8ebf;align=center;verticalAlign=middle;fontFamily=Helvetica;fontSize=11;fontColor=default;labelBackgroundColor=default;endArrow=open;endFill=0;fillColor=#dae8fc;" parent="1" source="tL1ipXAXYH468xp2Y8CK-278" target="tL1ipXAXYH468xp2Y8CK-184" edge="1">
          <mxGeometry relative="1" as="geometry" />
        </mxCell>
        <mxCell id="tL1ipXAXYH468xp2Y8CK-278" value="15" style="rounded=0;whiteSpace=wrap;html=1;" parent="1" vertex="1">
          <mxGeometry x="500" y="-40" width="20" height="20" as="geometry" />
        </mxCell>
        <mxCell id="tL1ipXAXYH468xp2Y8CK-321" style="edgeStyle=orthogonalEdgeStyle;rounded=0;orthogonalLoop=1;jettySize=auto;html=1;exitX=1;exitY=0.5;exitDx=0;exitDy=0;entryX=0;entryY=0.5;entryDx=0;entryDy=0;strokeColor=#6c8ebf;align=center;verticalAlign=middle;fontFamily=Helvetica;fontSize=11;fontColor=default;labelBackgroundColor=default;endArrow=open;endFill=0;fillColor=#dae8fc;" parent="1" source="tL1ipXAXYH468xp2Y8CK-279" target="tL1ipXAXYH468xp2Y8CK-178" edge="1">
          <mxGeometry relative="1" as="geometry" />
        </mxCell>
        <mxCell id="tL1ipXAXYH468xp2Y8CK-279" value="16" style="rounded=0;whiteSpace=wrap;html=1;" parent="1" vertex="1">
          <mxGeometry x="500" y="-20" width="20" height="20" as="geometry" />
        </mxCell>
        <mxCell id="tL1ipXAXYH468xp2Y8CK-322" style="edgeStyle=orthogonalEdgeStyle;rounded=0;orthogonalLoop=1;jettySize=auto;html=1;exitX=1;exitY=0.5;exitDx=0;exitDy=0;entryX=0;entryY=0.5;entryDx=0;entryDy=0;strokeColor=#6c8ebf;align=center;verticalAlign=middle;fontFamily=Helvetica;fontSize=11;fontColor=default;labelBackgroundColor=default;endArrow=open;endFill=0;fillColor=#dae8fc;" parent="1" source="tL1ipXAXYH468xp2Y8CK-280" target="tL1ipXAXYH468xp2Y8CK-172" edge="1">
          <mxGeometry relative="1" as="geometry" />
        </mxCell>
        <mxCell id="tL1ipXAXYH468xp2Y8CK-280" value="17" style="rounded=0;whiteSpace=wrap;html=1;" parent="1" vertex="1">
          <mxGeometry x="500" width="20" height="20" as="geometry" />
        </mxCell>
        <mxCell id="tL1ipXAXYH468xp2Y8CK-327" style="edgeStyle=orthogonalEdgeStyle;rounded=0;orthogonalLoop=1;jettySize=auto;html=1;exitX=1;exitY=0.5;exitDx=0;exitDy=0;entryX=0;entryY=0.5;entryDx=0;entryDy=0;strokeColor=#6c8ebf;align=center;verticalAlign=middle;fontFamily=Helvetica;fontSize=11;fontColor=default;labelBackgroundColor=default;endArrow=open;endFill=0;fillColor=#dae8fc;" parent="1" source="tL1ipXAXYH468xp2Y8CK-281" target="tL1ipXAXYH468xp2Y8CK-220" edge="1">
          <mxGeometry relative="1" as="geometry" />
        </mxCell>
        <mxCell id="tL1ipXAXYH468xp2Y8CK-281" value="22" style="rounded=0;whiteSpace=wrap;html=1;" parent="1" vertex="1">
          <mxGeometry x="500" y="100" width="20" height="20" as="geometry" />
        </mxCell>
        <mxCell id="tL1ipXAXYH468xp2Y8CK-328" style="edgeStyle=orthogonalEdgeStyle;rounded=0;orthogonalLoop=1;jettySize=auto;html=1;exitX=1;exitY=0.5;exitDx=0;exitDy=0;entryX=0;entryY=0.5;entryDx=0;entryDy=0;strokeColor=#6c8ebf;align=center;verticalAlign=middle;fontFamily=Helvetica;fontSize=11;fontColor=default;labelBackgroundColor=default;endArrow=open;endFill=0;fillColor=#dae8fc;" parent="1" source="tL1ipXAXYH468xp2Y8CK-282" target="tL1ipXAXYH468xp2Y8CK-214" edge="1">
          <mxGeometry relative="1" as="geometry" />
        </mxCell>
        <mxCell id="tL1ipXAXYH468xp2Y8CK-282" value="23" style="rounded=0;whiteSpace=wrap;html=1;" parent="1" vertex="1">
          <mxGeometry x="500" y="120" width="20" height="20" as="geometry" />
        </mxCell>
        <mxCell id="tL1ipXAXYH468xp2Y8CK-329" style="edgeStyle=orthogonalEdgeStyle;rounded=0;orthogonalLoop=1;jettySize=auto;html=1;exitX=1;exitY=0.5;exitDx=0;exitDy=0;entryX=0;entryY=0.5;entryDx=0;entryDy=0;strokeColor=#6c8ebf;align=center;verticalAlign=middle;fontFamily=Helvetica;fontSize=11;fontColor=default;labelBackgroundColor=default;endArrow=open;endFill=0;fillColor=#dae8fc;" parent="1" source="tL1ipXAXYH468xp2Y8CK-283" target="tL1ipXAXYH468xp2Y8CK-208" edge="1">
          <mxGeometry relative="1" as="geometry" />
        </mxCell>
        <mxCell id="tL1ipXAXYH468xp2Y8CK-283" value="24" style="rounded=0;whiteSpace=wrap;html=1;" parent="1" vertex="1">
          <mxGeometry x="500" y="140" width="20" height="20" as="geometry" />
        </mxCell>
        <mxCell id="tL1ipXAXYH468xp2Y8CK-330" style="edgeStyle=orthogonalEdgeStyle;rounded=0;orthogonalLoop=1;jettySize=auto;html=1;exitX=1;exitY=0.5;exitDx=0;exitDy=0;entryX=0;entryY=0.5;entryDx=0;entryDy=0;strokeColor=#6c8ebf;align=center;verticalAlign=middle;fontFamily=Helvetica;fontSize=11;fontColor=default;labelBackgroundColor=default;endArrow=open;endFill=0;fillColor=#dae8fc;" parent="1" source="tL1ipXAXYH468xp2Y8CK-284" target="tL1ipXAXYH468xp2Y8CK-202" edge="1">
          <mxGeometry relative="1" as="geometry" />
        </mxCell>
        <mxCell id="tL1ipXAXYH468xp2Y8CK-284" value="25" style="rounded=0;whiteSpace=wrap;html=1;" parent="1" vertex="1">
          <mxGeometry x="500" y="160" width="20" height="20" as="geometry" />
        </mxCell>
        <mxCell id="tL1ipXAXYH468xp2Y8CK-318" style="edgeStyle=orthogonalEdgeStyle;rounded=0;orthogonalLoop=1;jettySize=auto;html=1;exitX=1;exitY=0.5;exitDx=0;exitDy=0;entryX=0;entryY=0.5;entryDx=0;entryDy=0;strokeColor=#6c8ebf;align=center;verticalAlign=middle;fontFamily=Helvetica;fontSize=11;fontColor=default;labelBackgroundColor=default;endArrow=open;endFill=0;fillColor=#dae8fc;" parent="1" source="tL1ipXAXYH468xp2Y8CK-285" target="tL1ipXAXYH468xp2Y8CK-154" edge="1">
          <mxGeometry relative="1" as="geometry" />
        </mxCell>
        <mxCell id="tL1ipXAXYH468xp2Y8CK-285" value="13" style="rounded=0;whiteSpace=wrap;html=1;" parent="1" vertex="1">
          <mxGeometry x="500" y="-80" width="20" height="20" as="geometry" />
        </mxCell>
        <mxCell id="tL1ipXAXYH468xp2Y8CK-296" value="" style="group;strokeColor=default;container=0;" parent="1" vertex="1" connectable="0">
          <mxGeometry x="430" y="-80" width="40" height="20" as="geometry" />
        </mxCell>
        <mxCell id="tL1ipXAXYH468xp2Y8CK-297" value="0" style="rounded=0;whiteSpace=wrap;html=1;strokeColor=default;container=0;" parent="1" vertex="1">
          <mxGeometry x="430" y="-80" width="8" height="20" as="geometry" />
        </mxCell>
        <mxCell id="tL1ipXAXYH468xp2Y8CK-298" value="0" style="rounded=0;whiteSpace=wrap;html=1;strokeColor=default;container=0;" parent="1" vertex="1">
          <mxGeometry x="438" y="-80" width="8" height="20" as="geometry" />
        </mxCell>
        <mxCell id="tL1ipXAXYH468xp2Y8CK-299" value="0" style="rounded=0;whiteSpace=wrap;html=1;strokeColor=default;container=0;" parent="1" vertex="1">
          <mxGeometry x="446" y="-80" width="8" height="20" as="geometry" />
        </mxCell>
        <mxCell id="tL1ipXAXYH468xp2Y8CK-300" value="0" style="rounded=0;whiteSpace=wrap;html=1;strokeColor=default;container=0;" parent="1" vertex="1">
          <mxGeometry x="454" y="-80" width="8" height="20" as="geometry" />
        </mxCell>
        <mxCell id="tL1ipXAXYH468xp2Y8CK-301" value="0" style="rounded=0;whiteSpace=wrap;html=1;strokeColor=default;container=0;" parent="1" vertex="1">
          <mxGeometry x="462" y="-80" width="8" height="20" as="geometry" />
        </mxCell>
        <mxCell id="tL1ipXAXYH468xp2Y8CK-80" value="" style="group;strokeColor=default;container=0;" parent="1" vertex="1" connectable="0">
          <mxGeometry x="430" y="-60" width="40" height="20" as="geometry" />
        </mxCell>
        <mxCell id="tL1ipXAXYH468xp2Y8CK-81" value="0" style="rounded=0;whiteSpace=wrap;html=1;strokeColor=default;container=0;" parent="1" vertex="1">
          <mxGeometry x="430" y="-60" width="8" height="20" as="geometry" />
        </mxCell>
        <mxCell id="tL1ipXAXYH468xp2Y8CK-82" value="0" style="rounded=0;whiteSpace=wrap;html=1;strokeColor=default;container=0;" parent="1" vertex="1">
          <mxGeometry x="438" y="-60" width="8" height="20" as="geometry" />
        </mxCell>
        <mxCell id="tL1ipXAXYH468xp2Y8CK-83" value="0" style="rounded=0;whiteSpace=wrap;html=1;strokeColor=default;container=0;" parent="1" vertex="1">
          <mxGeometry x="446" y="-60" width="8" height="20" as="geometry" />
        </mxCell>
        <mxCell id="tL1ipXAXYH468xp2Y8CK-84" value="0" style="rounded=0;whiteSpace=wrap;html=1;strokeColor=default;container=0;" parent="1" vertex="1">
          <mxGeometry x="454" y="-60" width="8" height="20" as="geometry" />
        </mxCell>
        <mxCell id="tL1ipXAXYH468xp2Y8CK-85" value="1" style="rounded=0;whiteSpace=wrap;html=1;strokeColor=default;container=0;" parent="1" vertex="1">
          <mxGeometry x="462" y="-60" width="8" height="20" as="geometry" />
        </mxCell>
        <mxCell id="tL1ipXAXYH468xp2Y8CK-104" value="" style="group;strokeColor=default;container=0;" parent="1" vertex="1" connectable="0">
          <mxGeometry x="430" y="-40" width="40" height="20" as="geometry" />
        </mxCell>
        <mxCell id="tL1ipXAXYH468xp2Y8CK-105" value="0" style="rounded=0;whiteSpace=wrap;html=1;strokeColor=default;container=0;" parent="1" vertex="1">
          <mxGeometry x="430" y="-40" width="8" height="20" as="geometry" />
        </mxCell>
        <mxCell id="tL1ipXAXYH468xp2Y8CK-106" value="0" style="rounded=0;whiteSpace=wrap;html=1;strokeColor=default;container=0;" parent="1" vertex="1">
          <mxGeometry x="438" y="-40" width="8" height="20" as="geometry" />
        </mxCell>
        <mxCell id="tL1ipXAXYH468xp2Y8CK-107" value="0" style="rounded=0;whiteSpace=wrap;html=1;strokeColor=default;container=0;" parent="1" vertex="1">
          <mxGeometry x="446" y="-40" width="8" height="20" as="geometry" />
        </mxCell>
        <mxCell id="tL1ipXAXYH468xp2Y8CK-108" value="1" style="rounded=0;whiteSpace=wrap;html=1;strokeColor=default;container=0;" parent="1" vertex="1">
          <mxGeometry x="454" y="-40" width="8" height="20" as="geometry" />
        </mxCell>
        <mxCell id="tL1ipXAXYH468xp2Y8CK-109" value="0" style="rounded=0;whiteSpace=wrap;html=1;strokeColor=default;container=0;" parent="1" vertex="1">
          <mxGeometry x="462" y="-40" width="8" height="20" as="geometry" />
        </mxCell>
        <mxCell id="tL1ipXAXYH468xp2Y8CK-98" value="" style="group;strokeColor=default;container=0;" parent="1" vertex="1" connectable="0">
          <mxGeometry x="430" y="-20" width="40" height="20" as="geometry" />
        </mxCell>
        <mxCell id="tL1ipXAXYH468xp2Y8CK-99" value="0" style="rounded=0;whiteSpace=wrap;html=1;strokeColor=default;container=0;" parent="1" vertex="1">
          <mxGeometry x="430" y="-20" width="8" height="20" as="geometry" />
        </mxCell>
        <mxCell id="tL1ipXAXYH468xp2Y8CK-100" value="0" style="rounded=0;whiteSpace=wrap;html=1;strokeColor=default;container=0;" parent="1" vertex="1">
          <mxGeometry x="438" y="-20" width="8" height="20" as="geometry" />
        </mxCell>
        <mxCell id="tL1ipXAXYH468xp2Y8CK-101" value="0" style="rounded=0;whiteSpace=wrap;html=1;strokeColor=default;container=0;" parent="1" vertex="1">
          <mxGeometry x="446" y="-20" width="8" height="20" as="geometry" />
        </mxCell>
        <mxCell id="tL1ipXAXYH468xp2Y8CK-102" value="1" style="rounded=0;whiteSpace=wrap;html=1;strokeColor=default;container=0;" parent="1" vertex="1">
          <mxGeometry x="454" y="-20" width="8" height="20" as="geometry" />
        </mxCell>
        <mxCell id="tL1ipXAXYH468xp2Y8CK-103" value="1" style="rounded=0;whiteSpace=wrap;html=1;strokeColor=default;container=0;" parent="1" vertex="1">
          <mxGeometry x="462" y="-20" width="8" height="20" as="geometry" />
        </mxCell>
        <mxCell id="tL1ipXAXYH468xp2Y8CK-92" value="" style="group;strokeColor=default;container=0;" parent="1" vertex="1" connectable="0">
          <mxGeometry x="430" width="40" height="20" as="geometry" />
        </mxCell>
        <mxCell id="tL1ipXAXYH468xp2Y8CK-93" value="0" style="rounded=0;whiteSpace=wrap;html=1;strokeColor=default;container=0;" parent="1" vertex="1">
          <mxGeometry x="430" width="8" height="20" as="geometry" />
        </mxCell>
        <mxCell id="tL1ipXAXYH468xp2Y8CK-94" value="0" style="rounded=0;whiteSpace=wrap;html=1;strokeColor=default;container=0;" parent="1" vertex="1">
          <mxGeometry x="438" width="8" height="20" as="geometry" />
        </mxCell>
        <mxCell id="tL1ipXAXYH468xp2Y8CK-95" value="1" style="rounded=0;whiteSpace=wrap;html=1;strokeColor=default;container=0;" parent="1" vertex="1">
          <mxGeometry x="446" width="8" height="20" as="geometry" />
        </mxCell>
        <mxCell id="tL1ipXAXYH468xp2Y8CK-96" value="0" style="rounded=0;whiteSpace=wrap;html=1;strokeColor=default;container=0;" parent="1" vertex="1">
          <mxGeometry x="454" width="8" height="20" as="geometry" />
        </mxCell>
        <mxCell id="tL1ipXAXYH468xp2Y8CK-97" value="0" style="rounded=0;whiteSpace=wrap;html=1;strokeColor=default;container=0;" parent="1" vertex="1">
          <mxGeometry x="462" width="8" height="20" as="geometry" />
        </mxCell>
        <mxCell id="tL1ipXAXYH468xp2Y8CK-86" value="" style="group;strokeColor=default;container=0;" parent="1" vertex="1" connectable="0">
          <mxGeometry x="430" y="20" width="40" height="20" as="geometry" />
        </mxCell>
        <mxCell id="tL1ipXAXYH468xp2Y8CK-87" value="0" style="rounded=0;whiteSpace=wrap;html=1;strokeColor=default;container=0;" parent="1" vertex="1">
          <mxGeometry x="430" y="20" width="8" height="20" as="geometry" />
        </mxCell>
        <mxCell id="tL1ipXAXYH468xp2Y8CK-88" value="0" style="rounded=0;whiteSpace=wrap;html=1;strokeColor=default;container=0;" parent="1" vertex="1">
          <mxGeometry x="438" y="20" width="8" height="20" as="geometry" />
        </mxCell>
        <mxCell id="tL1ipXAXYH468xp2Y8CK-89" value="1" style="rounded=0;whiteSpace=wrap;html=1;strokeColor=default;container=0;" parent="1" vertex="1">
          <mxGeometry x="446" y="20" width="8" height="20" as="geometry" />
        </mxCell>
        <mxCell id="tL1ipXAXYH468xp2Y8CK-90" value="0" style="rounded=0;whiteSpace=wrap;html=1;strokeColor=default;container=0;" parent="1" vertex="1">
          <mxGeometry x="454" y="20" width="8" height="20" as="geometry" />
        </mxCell>
        <mxCell id="tL1ipXAXYH468xp2Y8CK-91" value="1" style="rounded=0;whiteSpace=wrap;html=1;strokeColor=default;container=0;" parent="1" vertex="1">
          <mxGeometry x="462" y="20" width="8" height="20" as="geometry" />
        </mxCell>
        <mxCell id="tL1ipXAXYH468xp2Y8CK-147" value="" style="group;strokeColor=default;container=0;" parent="1" vertex="1" connectable="0">
          <mxGeometry x="430" y="40" width="40" height="20" as="geometry" />
        </mxCell>
        <mxCell id="tL1ipXAXYH468xp2Y8CK-148" value="0" style="rounded=0;whiteSpace=wrap;html=1;strokeColor=default;container=0;" parent="1" vertex="1">
          <mxGeometry x="430" y="40" width="8" height="20" as="geometry" />
        </mxCell>
        <mxCell id="tL1ipXAXYH468xp2Y8CK-149" value="0" style="rounded=0;whiteSpace=wrap;html=1;strokeColor=default;container=0;" parent="1" vertex="1">
          <mxGeometry x="438" y="40" width="8" height="20" as="geometry" />
        </mxCell>
        <mxCell id="tL1ipXAXYH468xp2Y8CK-150" value="1" style="rounded=0;whiteSpace=wrap;html=1;strokeColor=default;container=0;" parent="1" vertex="1">
          <mxGeometry x="446" y="40" width="8" height="20" as="geometry" />
        </mxCell>
        <mxCell id="tL1ipXAXYH468xp2Y8CK-151" value="1" style="rounded=0;whiteSpace=wrap;html=1;strokeColor=default;container=0;" parent="1" vertex="1">
          <mxGeometry x="454" y="40" width="8" height="20" as="geometry" />
        </mxCell>
        <mxCell id="tL1ipXAXYH468xp2Y8CK-152" value="0" style="rounded=0;whiteSpace=wrap;html=1;strokeColor=default;container=0;" parent="1" vertex="1">
          <mxGeometry x="462" y="40" width="8" height="20" as="geometry" />
        </mxCell>
        <mxCell id="tL1ipXAXYH468xp2Y8CK-111" value="" style="group;strokeColor=default;container=0;" parent="1" vertex="1" connectable="0">
          <mxGeometry x="430" y="60" width="40" height="20" as="geometry" />
        </mxCell>
        <mxCell id="tL1ipXAXYH468xp2Y8CK-112" value="0" style="rounded=0;whiteSpace=wrap;html=1;strokeColor=default;container=0;" parent="1" vertex="1">
          <mxGeometry x="430" y="60" width="8" height="20" as="geometry" />
        </mxCell>
        <mxCell id="tL1ipXAXYH468xp2Y8CK-113" value="0" style="rounded=0;whiteSpace=wrap;html=1;strokeColor=default;container=0;" parent="1" vertex="1">
          <mxGeometry x="438" y="60" width="8" height="20" as="geometry" />
        </mxCell>
        <mxCell id="tL1ipXAXYH468xp2Y8CK-114" value="1" style="rounded=0;whiteSpace=wrap;html=1;strokeColor=default;container=0;" parent="1" vertex="1">
          <mxGeometry x="446" y="60" width="8" height="20" as="geometry" />
        </mxCell>
        <mxCell id="tL1ipXAXYH468xp2Y8CK-115" value="1" style="rounded=0;whiteSpace=wrap;html=1;strokeColor=default;container=0;" parent="1" vertex="1">
          <mxGeometry x="454" y="60" width="8" height="20" as="geometry" />
        </mxCell>
        <mxCell id="tL1ipXAXYH468xp2Y8CK-116" value="1" style="rounded=0;whiteSpace=wrap;html=1;strokeColor=default;container=0;" parent="1" vertex="1">
          <mxGeometry x="462" y="60" width="8" height="20" as="geometry" />
        </mxCell>
        <mxCell id="tL1ipXAXYH468xp2Y8CK-117" value="" style="group;strokeColor=default;container=0;" parent="1" vertex="1" connectable="0">
          <mxGeometry x="430" y="80" width="40" height="20" as="geometry" />
        </mxCell>
        <mxCell id="tL1ipXAXYH468xp2Y8CK-118" value="0" style="rounded=0;whiteSpace=wrap;html=1;strokeColor=default;container=0;" parent="1" vertex="1">
          <mxGeometry x="430" y="80" width="8" height="20" as="geometry" />
        </mxCell>
        <mxCell id="tL1ipXAXYH468xp2Y8CK-119" value="1" style="rounded=0;whiteSpace=wrap;html=1;strokeColor=default;container=0;" parent="1" vertex="1">
          <mxGeometry x="438" y="80" width="8" height="20" as="geometry" />
        </mxCell>
        <mxCell id="tL1ipXAXYH468xp2Y8CK-120" value="0" style="rounded=0;whiteSpace=wrap;html=1;strokeColor=default;container=0;" parent="1" vertex="1">
          <mxGeometry x="446" y="80" width="8" height="20" as="geometry" />
        </mxCell>
        <mxCell id="tL1ipXAXYH468xp2Y8CK-121" value="0" style="rounded=0;whiteSpace=wrap;html=1;strokeColor=default;container=0;" parent="1" vertex="1">
          <mxGeometry x="454" y="80" width="8" height="20" as="geometry" />
        </mxCell>
        <mxCell id="tL1ipXAXYH468xp2Y8CK-122" value="0" style="rounded=0;whiteSpace=wrap;html=1;strokeColor=default;container=0;" parent="1" vertex="1">
          <mxGeometry x="462" y="80" width="8" height="20" as="geometry" />
        </mxCell>
        <mxCell id="tL1ipXAXYH468xp2Y8CK-141" value="" style="group;strokeColor=default;container=0;" parent="1" vertex="1" connectable="0">
          <mxGeometry x="430" y="100" width="40" height="20" as="geometry" />
        </mxCell>
        <mxCell id="tL1ipXAXYH468xp2Y8CK-142" value="0" style="rounded=0;whiteSpace=wrap;html=1;strokeColor=default;container=0;" parent="1" vertex="1">
          <mxGeometry x="430" y="100" width="8" height="20" as="geometry" />
        </mxCell>
        <mxCell id="tL1ipXAXYH468xp2Y8CK-143" value="1" style="rounded=0;whiteSpace=wrap;html=1;strokeColor=default;container=0;" parent="1" vertex="1">
          <mxGeometry x="438" y="100" width="8" height="20" as="geometry" />
        </mxCell>
        <mxCell id="tL1ipXAXYH468xp2Y8CK-144" value="0" style="rounded=0;whiteSpace=wrap;html=1;strokeColor=default;container=0;" parent="1" vertex="1">
          <mxGeometry x="446" y="100" width="8" height="20" as="geometry" />
        </mxCell>
        <mxCell id="tL1ipXAXYH468xp2Y8CK-145" value="0" style="rounded=0;whiteSpace=wrap;html=1;strokeColor=default;container=0;" parent="1" vertex="1">
          <mxGeometry x="454" y="100" width="8" height="20" as="geometry" />
        </mxCell>
        <mxCell id="tL1ipXAXYH468xp2Y8CK-146" value="1" style="rounded=0;whiteSpace=wrap;html=1;strokeColor=default;container=0;" parent="1" vertex="1">
          <mxGeometry x="462" y="100" width="8" height="20" as="geometry" />
        </mxCell>
        <mxCell id="tL1ipXAXYH468xp2Y8CK-135" value="" style="group;strokeColor=default;container=0;" parent="1" vertex="1" connectable="0">
          <mxGeometry x="430" y="120" width="40" height="20" as="geometry" />
        </mxCell>
        <mxCell id="tL1ipXAXYH468xp2Y8CK-136" value="0" style="rounded=0;whiteSpace=wrap;html=1;strokeColor=default;container=0;" parent="1" vertex="1">
          <mxGeometry x="430" y="120" width="8" height="20" as="geometry" />
        </mxCell>
        <mxCell id="tL1ipXAXYH468xp2Y8CK-137" value="1" style="rounded=0;whiteSpace=wrap;html=1;strokeColor=default;container=0;" parent="1" vertex="1">
          <mxGeometry x="438" y="120" width="8" height="20" as="geometry" />
        </mxCell>
        <mxCell id="tL1ipXAXYH468xp2Y8CK-138" value="0" style="rounded=0;whiteSpace=wrap;html=1;strokeColor=default;container=0;" parent="1" vertex="1">
          <mxGeometry x="446" y="120" width="8" height="20" as="geometry" />
        </mxCell>
        <mxCell id="tL1ipXAXYH468xp2Y8CK-139" value="1" style="rounded=0;whiteSpace=wrap;html=1;strokeColor=default;container=0;" parent="1" vertex="1">
          <mxGeometry x="454" y="120" width="8" height="20" as="geometry" />
        </mxCell>
        <mxCell id="tL1ipXAXYH468xp2Y8CK-140" value="0" style="rounded=0;whiteSpace=wrap;html=1;strokeColor=default;container=0;" parent="1" vertex="1">
          <mxGeometry x="462" y="120" width="8" height="20" as="geometry" />
        </mxCell>
        <mxCell id="tL1ipXAXYH468xp2Y8CK-129" value="" style="group;strokeColor=default;container=0;" parent="1" vertex="1" connectable="0">
          <mxGeometry x="430" y="140" width="40" height="20" as="geometry" />
        </mxCell>
        <mxCell id="tL1ipXAXYH468xp2Y8CK-130" value="0" style="rounded=0;whiteSpace=wrap;html=1;strokeColor=default;container=0;" parent="1" vertex="1">
          <mxGeometry x="430" y="140" width="8" height="20" as="geometry" />
        </mxCell>
        <mxCell id="tL1ipXAXYH468xp2Y8CK-131" value="1" style="rounded=0;whiteSpace=wrap;html=1;strokeColor=default;container=0;" parent="1" vertex="1">
          <mxGeometry x="438" y="140" width="8" height="20" as="geometry" />
        </mxCell>
        <mxCell id="tL1ipXAXYH468xp2Y8CK-132" value="0" style="rounded=0;whiteSpace=wrap;html=1;strokeColor=default;container=0;" parent="1" vertex="1">
          <mxGeometry x="446" y="140" width="8" height="20" as="geometry" />
        </mxCell>
        <mxCell id="tL1ipXAXYH468xp2Y8CK-133" value="1" style="rounded=0;whiteSpace=wrap;html=1;strokeColor=default;container=0;" parent="1" vertex="1">
          <mxGeometry x="454" y="140" width="8" height="20" as="geometry" />
        </mxCell>
        <mxCell id="tL1ipXAXYH468xp2Y8CK-134" value="1" style="rounded=0;whiteSpace=wrap;html=1;strokeColor=default;container=0;" parent="1" vertex="1">
          <mxGeometry x="462" y="140" width="8" height="20" as="geometry" />
        </mxCell>
        <mxCell id="tL1ipXAXYH468xp2Y8CK-123" value="" style="group;strokeColor=default;container=0;" parent="1" vertex="1" connectable="0">
          <mxGeometry x="430" y="160" width="40" height="20" as="geometry" />
        </mxCell>
        <mxCell id="tL1ipXAXYH468xp2Y8CK-124" value="0" style="rounded=0;whiteSpace=wrap;html=1;strokeColor=default;container=0;" parent="1" vertex="1">
          <mxGeometry x="430" y="160" width="8" height="20" as="geometry" />
        </mxCell>
        <mxCell id="tL1ipXAXYH468xp2Y8CK-125" value="1" style="rounded=0;whiteSpace=wrap;html=1;strokeColor=default;container=0;" parent="1" vertex="1">
          <mxGeometry x="438" y="160" width="8" height="20" as="geometry" />
        </mxCell>
        <mxCell id="tL1ipXAXYH468xp2Y8CK-126" value="1" style="rounded=0;whiteSpace=wrap;html=1;strokeColor=default;container=0;" parent="1" vertex="1">
          <mxGeometry x="446" y="160" width="8" height="20" as="geometry" />
        </mxCell>
        <mxCell id="tL1ipXAXYH468xp2Y8CK-127" value="0" style="rounded=0;whiteSpace=wrap;html=1;strokeColor=default;container=0;" parent="1" vertex="1">
          <mxGeometry x="454" y="160" width="8" height="20" as="geometry" />
        </mxCell>
        <mxCell id="tL1ipXAXYH468xp2Y8CK-128" value="0" style="rounded=0;whiteSpace=wrap;html=1;strokeColor=default;container=0;" parent="1" vertex="1">
          <mxGeometry x="462" y="160" width="8" height="20" as="geometry" />
        </mxCell>
        <mxCell id="tL1ipXAXYH468xp2Y8CK-303" value="" style="group" parent="1" vertex="1" connectable="0">
          <mxGeometry x="530" y="-80" width="640" height="20" as="geometry" />
        </mxCell>
        <mxCell id="tL1ipXAXYH468xp2Y8CK-153" value="" style="group;strokeColor=default;container=0;" parent="tL1ipXAXYH468xp2Y8CK-303" vertex="1" connectable="0">
          <mxGeometry width="40" height="20" as="geometry" />
        </mxCell>
        <mxCell id="tL1ipXAXYH468xp2Y8CK-154" value="0" style="rounded=0;whiteSpace=wrap;html=1;strokeColor=default;container=0;" parent="tL1ipXAXYH468xp2Y8CK-303" vertex="1">
          <mxGeometry width="8" height="20" as="geometry" />
        </mxCell>
        <mxCell id="tL1ipXAXYH468xp2Y8CK-155" value="1" style="rounded=0;whiteSpace=wrap;html=1;strokeColor=default;container=0;" parent="tL1ipXAXYH468xp2Y8CK-303" vertex="1">
          <mxGeometry x="8" width="8" height="20" as="geometry" />
        </mxCell>
        <mxCell id="tL1ipXAXYH468xp2Y8CK-156" value="1" style="rounded=0;whiteSpace=wrap;html=1;strokeColor=default;container=0;" parent="tL1ipXAXYH468xp2Y8CK-303" vertex="1">
          <mxGeometry x="16" width="8" height="20" as="geometry" />
        </mxCell>
        <mxCell id="tL1ipXAXYH468xp2Y8CK-157" value="0" style="rounded=0;whiteSpace=wrap;html=1;strokeColor=default;container=0;" parent="tL1ipXAXYH468xp2Y8CK-303" vertex="1">
          <mxGeometry x="24" width="8" height="20" as="geometry" />
        </mxCell>
        <mxCell id="tL1ipXAXYH468xp2Y8CK-158" value="1" style="rounded=0;whiteSpace=wrap;html=1;strokeColor=default;container=0;" parent="tL1ipXAXYH468xp2Y8CK-303" vertex="1">
          <mxGeometry x="32" width="8" height="20" as="geometry" />
        </mxCell>
        <mxCell id="tL1ipXAXYH468xp2Y8CK-159" value="" style="group;strokeColor=default;container=0;" parent="1" vertex="1" connectable="0">
          <mxGeometry x="530" y="-60" width="40" height="20" as="geometry" />
        </mxCell>
        <mxCell id="tL1ipXAXYH468xp2Y8CK-160" value="0" style="rounded=0;whiteSpace=wrap;html=1;strokeColor=default;container=0;" parent="1" vertex="1">
          <mxGeometry x="530" y="-60" width="8" height="20" as="geometry" />
        </mxCell>
        <mxCell id="tL1ipXAXYH468xp2Y8CK-161" value="1" style="rounded=0;whiteSpace=wrap;html=1;strokeColor=default;container=0;" parent="1" vertex="1">
          <mxGeometry x="538" y="-60" width="8" height="20" as="geometry" />
        </mxCell>
        <mxCell id="tL1ipXAXYH468xp2Y8CK-162" value="1" style="rounded=0;whiteSpace=wrap;html=1;strokeColor=default;container=0;" parent="1" vertex="1">
          <mxGeometry x="546" y="-60" width="8" height="20" as="geometry" />
        </mxCell>
        <mxCell id="tL1ipXAXYH468xp2Y8CK-163" value="1" style="rounded=0;whiteSpace=wrap;html=1;strokeColor=default;container=0;" parent="1" vertex="1">
          <mxGeometry x="554" y="-60" width="8" height="20" as="geometry" />
        </mxCell>
        <mxCell id="tL1ipXAXYH468xp2Y8CK-164" value="0" style="rounded=0;whiteSpace=wrap;html=1;strokeColor=default;container=0;" parent="1" vertex="1">
          <mxGeometry x="562" y="-60" width="8" height="20" as="geometry" />
        </mxCell>
        <mxCell id="tL1ipXAXYH468xp2Y8CK-165" value="" style="group;strokeColor=default;container=0;" parent="1" vertex="1" connectable="0">
          <mxGeometry x="530" y="20" width="40" height="20" as="geometry" />
        </mxCell>
        <mxCell id="tL1ipXAXYH468xp2Y8CK-166" value="1" style="rounded=0;whiteSpace=wrap;html=1;strokeColor=default;container=0;" parent="1" vertex="1">
          <mxGeometry x="530" y="20" width="8" height="20" as="geometry" />
        </mxCell>
        <mxCell id="tL1ipXAXYH468xp2Y8CK-167" value="0" style="rounded=0;whiteSpace=wrap;html=1;strokeColor=default;container=0;" parent="1" vertex="1">
          <mxGeometry x="538" y="20" width="8" height="20" as="geometry" />
        </mxCell>
        <mxCell id="tL1ipXAXYH468xp2Y8CK-168" value="0" style="rounded=0;whiteSpace=wrap;html=1;strokeColor=default;container=0;" parent="1" vertex="1">
          <mxGeometry x="546" y="20" width="8" height="20" as="geometry" />
        </mxCell>
        <mxCell id="tL1ipXAXYH468xp2Y8CK-169" value="1" style="rounded=0;whiteSpace=wrap;html=1;strokeColor=default;container=0;" parent="1" vertex="1">
          <mxGeometry x="554" y="20" width="8" height="20" as="geometry" />
        </mxCell>
        <mxCell id="tL1ipXAXYH468xp2Y8CK-170" value="0" style="rounded=0;whiteSpace=wrap;html=1;strokeColor=default;container=0;" parent="1" vertex="1">
          <mxGeometry x="562" y="20" width="8" height="20" as="geometry" />
        </mxCell>
        <mxCell id="tL1ipXAXYH468xp2Y8CK-171" value="" style="group;strokeColor=default;container=0;" parent="1" vertex="1" connectable="0">
          <mxGeometry x="530" width="40" height="20" as="geometry" />
        </mxCell>
        <mxCell id="tL1ipXAXYH468xp2Y8CK-172" value="1" style="rounded=0;whiteSpace=wrap;html=1;strokeColor=default;container=0;" parent="1" vertex="1">
          <mxGeometry x="530" width="8" height="20" as="geometry" />
        </mxCell>
        <mxCell id="tL1ipXAXYH468xp2Y8CK-173" value="0" style="rounded=0;whiteSpace=wrap;html=1;strokeColor=default;container=0;" parent="1" vertex="1">
          <mxGeometry x="538" width="8" height="20" as="geometry" />
        </mxCell>
        <mxCell id="tL1ipXAXYH468xp2Y8CK-174" value="0" style="rounded=0;whiteSpace=wrap;html=1;strokeColor=default;container=0;" parent="1" vertex="1">
          <mxGeometry x="546" width="8" height="20" as="geometry" />
        </mxCell>
        <mxCell id="tL1ipXAXYH468xp2Y8CK-175" value="0" style="rounded=0;whiteSpace=wrap;html=1;strokeColor=default;container=0;" parent="1" vertex="1">
          <mxGeometry x="554" width="8" height="20" as="geometry" />
        </mxCell>
        <mxCell id="tL1ipXAXYH468xp2Y8CK-176" value="1" style="rounded=0;whiteSpace=wrap;html=1;strokeColor=default;container=0;" parent="1" vertex="1">
          <mxGeometry x="562" width="8" height="20" as="geometry" />
        </mxCell>
        <mxCell id="tL1ipXAXYH468xp2Y8CK-177" value="" style="group;strokeColor=default;container=0;" parent="1" vertex="1" connectable="0">
          <mxGeometry x="530" y="-20" width="40" height="20" as="geometry" />
        </mxCell>
        <mxCell id="tL1ipXAXYH468xp2Y8CK-178" value="1" style="rounded=0;whiteSpace=wrap;html=1;strokeColor=default;container=0;" parent="1" vertex="1">
          <mxGeometry x="530" y="-20" width="8" height="20" as="geometry" />
        </mxCell>
        <mxCell id="tL1ipXAXYH468xp2Y8CK-179" value="0" style="rounded=0;whiteSpace=wrap;html=1;strokeColor=default;container=0;" parent="1" vertex="1">
          <mxGeometry x="538" y="-20" width="8" height="20" as="geometry" />
        </mxCell>
        <mxCell id="tL1ipXAXYH468xp2Y8CK-180" value="0" style="rounded=0;whiteSpace=wrap;html=1;strokeColor=default;container=0;" parent="1" vertex="1">
          <mxGeometry x="546" y="-20" width="8" height="20" as="geometry" />
        </mxCell>
        <mxCell id="tL1ipXAXYH468xp2Y8CK-181" value="0" style="rounded=0;whiteSpace=wrap;html=1;strokeColor=default;container=0;" parent="1" vertex="1">
          <mxGeometry x="554" y="-20" width="8" height="20" as="geometry" />
        </mxCell>
        <mxCell id="tL1ipXAXYH468xp2Y8CK-182" value="0" style="rounded=0;whiteSpace=wrap;html=1;strokeColor=default;container=0;" parent="1" vertex="1">
          <mxGeometry x="562" y="-20" width="8" height="20" as="geometry" />
        </mxCell>
        <mxCell id="tL1ipXAXYH468xp2Y8CK-183" value="" style="group;strokeColor=default;container=0;" parent="1" vertex="1" connectable="0">
          <mxGeometry x="530" y="-40" width="40" height="20" as="geometry" />
        </mxCell>
        <mxCell id="tL1ipXAXYH468xp2Y8CK-184" value="0" style="rounded=0;whiteSpace=wrap;html=1;strokeColor=default;container=0;" parent="1" vertex="1">
          <mxGeometry x="530" y="-40" width="8" height="20" as="geometry" />
        </mxCell>
        <mxCell id="tL1ipXAXYH468xp2Y8CK-185" value="1" style="rounded=0;whiteSpace=wrap;html=1;strokeColor=default;container=0;" parent="1" vertex="1">
          <mxGeometry x="538" y="-40" width="8" height="20" as="geometry" />
        </mxCell>
        <mxCell id="tL1ipXAXYH468xp2Y8CK-186" value="1" style="rounded=0;whiteSpace=wrap;html=1;strokeColor=default;container=0;" parent="1" vertex="1">
          <mxGeometry x="546" y="-40" width="8" height="20" as="geometry" />
        </mxCell>
        <mxCell id="tL1ipXAXYH468xp2Y8CK-187" value="1" style="rounded=0;whiteSpace=wrap;html=1;strokeColor=default;container=0;" parent="1" vertex="1">
          <mxGeometry x="554" y="-40" width="8" height="20" as="geometry" />
        </mxCell>
        <mxCell id="tL1ipXAXYH468xp2Y8CK-188" value="1" style="rounded=0;whiteSpace=wrap;html=1;strokeColor=default;container=0;" parent="1" vertex="1">
          <mxGeometry x="562" y="-40" width="8" height="20" as="geometry" />
        </mxCell>
        <mxCell id="tL1ipXAXYH468xp2Y8CK-189" value="" style="group;strokeColor=default;container=0;" parent="1" vertex="1" connectable="0">
          <mxGeometry x="530" y="60" width="40" height="20" as="geometry" />
        </mxCell>
        <mxCell id="tL1ipXAXYH468xp2Y8CK-190" value="1" style="rounded=0;whiteSpace=wrap;html=1;strokeColor=default;container=0;" parent="1" vertex="1">
          <mxGeometry x="530" y="60" width="8" height="20" as="geometry" />
        </mxCell>
        <mxCell id="tL1ipXAXYH468xp2Y8CK-191" value="0" style="rounded=0;whiteSpace=wrap;html=1;strokeColor=default;container=0;" parent="1" vertex="1">
          <mxGeometry x="538" y="60" width="8" height="20" as="geometry" />
        </mxCell>
        <mxCell id="tL1ipXAXYH468xp2Y8CK-192" value="1" style="rounded=0;whiteSpace=wrap;html=1;strokeColor=default;container=0;" parent="1" vertex="1">
          <mxGeometry x="546" y="60" width="8" height="20" as="geometry" />
        </mxCell>
        <mxCell id="tL1ipXAXYH468xp2Y8CK-193" value="0" style="rounded=0;whiteSpace=wrap;html=1;strokeColor=default;container=0;" parent="1" vertex="1">
          <mxGeometry x="554" y="60" width="8" height="20" as="geometry" />
        </mxCell>
        <mxCell id="tL1ipXAXYH468xp2Y8CK-194" value="0" style="rounded=0;whiteSpace=wrap;html=1;strokeColor=default;container=0;" parent="1" vertex="1">
          <mxGeometry x="562" y="60" width="8" height="20" as="geometry" />
        </mxCell>
        <mxCell id="tL1ipXAXYH468xp2Y8CK-195" value="" style="group;strokeColor=default;container=0;" parent="1" vertex="1" connectable="0">
          <mxGeometry x="530" y="80" width="40" height="20" as="geometry" />
        </mxCell>
        <mxCell id="tL1ipXAXYH468xp2Y8CK-196" value="1" style="rounded=0;whiteSpace=wrap;html=1;strokeColor=default;container=0;" parent="1" vertex="1">
          <mxGeometry x="530" y="80" width="8" height="20" as="geometry" />
        </mxCell>
        <mxCell id="tL1ipXAXYH468xp2Y8CK-197" value="0" style="rounded=0;whiteSpace=wrap;html=1;strokeColor=default;container=0;" parent="1" vertex="1">
          <mxGeometry x="538" y="80" width="8" height="20" as="geometry" />
        </mxCell>
        <mxCell id="tL1ipXAXYH468xp2Y8CK-198" value="1" style="rounded=0;whiteSpace=wrap;html=1;strokeColor=default;container=0;" parent="1" vertex="1">
          <mxGeometry x="546" y="80" width="8" height="20" as="geometry" />
        </mxCell>
        <mxCell id="tL1ipXAXYH468xp2Y8CK-199" value="0" style="rounded=0;whiteSpace=wrap;html=1;strokeColor=default;container=0;" parent="1" vertex="1">
          <mxGeometry x="554" y="80" width="8" height="20" as="geometry" />
        </mxCell>
        <mxCell id="tL1ipXAXYH468xp2Y8CK-200" value="1" style="rounded=0;whiteSpace=wrap;html=1;strokeColor=default;container=0;" parent="1" vertex="1">
          <mxGeometry x="562" y="80" width="8" height="20" as="geometry" />
        </mxCell>
        <mxCell id="tL1ipXAXYH468xp2Y8CK-201" value="" style="group;strokeColor=default;container=0;" parent="1" vertex="1" connectable="0">
          <mxGeometry x="530" y="160" width="40" height="20" as="geometry" />
        </mxCell>
        <mxCell id="tL1ipXAXYH468xp2Y8CK-202" value="1" style="rounded=0;whiteSpace=wrap;html=1;strokeColor=default;container=0;" parent="1" vertex="1">
          <mxGeometry x="530" y="160" width="8" height="20" as="geometry" />
        </mxCell>
        <mxCell id="tL1ipXAXYH468xp2Y8CK-203" value="1" style="rounded=0;whiteSpace=wrap;html=1;strokeColor=default;container=0;" parent="1" vertex="1">
          <mxGeometry x="538" y="160" width="8" height="20" as="geometry" />
        </mxCell>
        <mxCell id="tL1ipXAXYH468xp2Y8CK-204" value="0" style="rounded=0;whiteSpace=wrap;html=1;strokeColor=default;container=0;" parent="1" vertex="1">
          <mxGeometry x="546" y="160" width="8" height="20" as="geometry" />
        </mxCell>
        <mxCell id="tL1ipXAXYH468xp2Y8CK-205" value="0" style="rounded=0;whiteSpace=wrap;html=1;strokeColor=default;container=0;" parent="1" vertex="1">
          <mxGeometry x="554" y="160" width="8" height="20" as="geometry" />
        </mxCell>
        <mxCell id="tL1ipXAXYH468xp2Y8CK-206" value="1" style="rounded=0;whiteSpace=wrap;html=1;strokeColor=default;container=0;" parent="1" vertex="1">
          <mxGeometry x="562" y="160" width="8" height="20" as="geometry" />
        </mxCell>
        <mxCell id="tL1ipXAXYH468xp2Y8CK-207" value="" style="group;strokeColor=default;container=0;" parent="1" vertex="1" connectable="0">
          <mxGeometry x="530" y="140" width="40" height="20" as="geometry" />
        </mxCell>
        <mxCell id="tL1ipXAXYH468xp2Y8CK-208" value="1" style="rounded=0;whiteSpace=wrap;html=1;strokeColor=default;container=0;" parent="1" vertex="1">
          <mxGeometry x="530" y="140" width="8" height="20" as="geometry" />
        </mxCell>
        <mxCell id="tL1ipXAXYH468xp2Y8CK-209" value="1" style="rounded=0;whiteSpace=wrap;html=1;strokeColor=default;container=0;" parent="1" vertex="1">
          <mxGeometry x="538" y="140" width="8" height="20" as="geometry" />
        </mxCell>
        <mxCell id="tL1ipXAXYH468xp2Y8CK-210" value="0" style="rounded=0;whiteSpace=wrap;html=1;strokeColor=default;container=0;" parent="1" vertex="1">
          <mxGeometry x="546" y="140" width="8" height="20" as="geometry" />
        </mxCell>
        <mxCell id="tL1ipXAXYH468xp2Y8CK-211" value="0" style="rounded=0;whiteSpace=wrap;html=1;strokeColor=default;container=0;" parent="1" vertex="1">
          <mxGeometry x="554" y="140" width="8" height="20" as="geometry" />
        </mxCell>
        <mxCell id="tL1ipXAXYH468xp2Y8CK-212" value="0" style="rounded=0;whiteSpace=wrap;html=1;strokeColor=default;container=0;" parent="1" vertex="1">
          <mxGeometry x="562" y="140" width="8" height="20" as="geometry" />
        </mxCell>
        <mxCell id="tL1ipXAXYH468xp2Y8CK-213" value="" style="group;strokeColor=default;container=0;" parent="1" vertex="1" connectable="0">
          <mxGeometry x="530" y="120" width="40" height="20" as="geometry" />
        </mxCell>
        <mxCell id="tL1ipXAXYH468xp2Y8CK-214" value="1" style="rounded=0;whiteSpace=wrap;html=1;strokeColor=default;container=0;" parent="1" vertex="1">
          <mxGeometry x="530" y="120" width="8" height="20" as="geometry" />
        </mxCell>
        <mxCell id="tL1ipXAXYH468xp2Y8CK-215" value="0" style="rounded=0;whiteSpace=wrap;html=1;strokeColor=default;container=0;" parent="1" vertex="1">
          <mxGeometry x="538" y="120" width="8" height="20" as="geometry" />
        </mxCell>
        <mxCell id="tL1ipXAXYH468xp2Y8CK-216" value="1" style="rounded=0;whiteSpace=wrap;html=1;strokeColor=default;container=0;" parent="1" vertex="1">
          <mxGeometry x="546" y="120" width="8" height="20" as="geometry" />
        </mxCell>
        <mxCell id="tL1ipXAXYH468xp2Y8CK-217" value="1" style="rounded=0;whiteSpace=wrap;html=1;strokeColor=default;container=0;" parent="1" vertex="1">
          <mxGeometry x="554" y="120" width="8" height="20" as="geometry" />
        </mxCell>
        <mxCell id="tL1ipXAXYH468xp2Y8CK-218" value="1" style="rounded=0;whiteSpace=wrap;html=1;strokeColor=default;container=0;" parent="1" vertex="1">
          <mxGeometry x="562" y="120" width="8" height="20" as="geometry" />
        </mxCell>
        <mxCell id="tL1ipXAXYH468xp2Y8CK-219" value="" style="group;strokeColor=default;container=0;" parent="1" vertex="1" connectable="0">
          <mxGeometry x="530" y="100" width="40" height="20" as="geometry" />
        </mxCell>
        <mxCell id="tL1ipXAXYH468xp2Y8CK-220" value="1" style="rounded=0;whiteSpace=wrap;html=1;strokeColor=default;container=0;" parent="1" vertex="1">
          <mxGeometry x="530" y="100" width="8" height="20" as="geometry" />
        </mxCell>
        <mxCell id="tL1ipXAXYH468xp2Y8CK-221" value="0" style="rounded=0;whiteSpace=wrap;html=1;strokeColor=default;container=0;" parent="1" vertex="1">
          <mxGeometry x="538" y="100" width="8" height="20" as="geometry" />
        </mxCell>
        <mxCell id="tL1ipXAXYH468xp2Y8CK-222" value="1" style="rounded=0;whiteSpace=wrap;html=1;strokeColor=default;container=0;" parent="1" vertex="1">
          <mxGeometry x="546" y="100" width="8" height="20" as="geometry" />
        </mxCell>
        <mxCell id="tL1ipXAXYH468xp2Y8CK-223" value="1" style="rounded=0;whiteSpace=wrap;html=1;strokeColor=default;container=0;" parent="1" vertex="1">
          <mxGeometry x="554" y="100" width="8" height="20" as="geometry" />
        </mxCell>
        <mxCell id="tL1ipXAXYH468xp2Y8CK-224" value="0" style="rounded=0;whiteSpace=wrap;html=1;strokeColor=default;container=0;" parent="1" vertex="1">
          <mxGeometry x="562" y="100" width="8" height="20" as="geometry" />
        </mxCell>
        <mxCell id="tL1ipXAXYH468xp2Y8CK-225" value="" style="group;strokeColor=default;container=0;" parent="1" vertex="1" connectable="0">
          <mxGeometry x="530" y="40" width="40" height="20" as="geometry" />
        </mxCell>
        <mxCell id="tL1ipXAXYH468xp2Y8CK-226" value="1" style="rounded=0;whiteSpace=wrap;html=1;strokeColor=default;container=0;" parent="1" vertex="1">
          <mxGeometry x="530" y="40" width="8" height="20" as="geometry" />
        </mxCell>
        <mxCell id="tL1ipXAXYH468xp2Y8CK-227" value="0" style="rounded=0;whiteSpace=wrap;html=1;strokeColor=default;container=0;" parent="1" vertex="1">
          <mxGeometry x="538" y="40" width="8" height="20" as="geometry" />
        </mxCell>
        <mxCell id="tL1ipXAXYH468xp2Y8CK-228" value="0" style="rounded=0;whiteSpace=wrap;html=1;strokeColor=default;container=0;" parent="1" vertex="1">
          <mxGeometry x="546" y="40" width="8" height="20" as="geometry" />
        </mxCell>
        <mxCell id="tL1ipXAXYH468xp2Y8CK-229" value="1" style="rounded=0;whiteSpace=wrap;html=1;strokeColor=default;container=0;" parent="1" vertex="1">
          <mxGeometry x="554" y="40" width="8" height="20" as="geometry" />
        </mxCell>
        <mxCell id="tL1ipXAXYH468xp2Y8CK-230" value="1" style="rounded=0;whiteSpace=wrap;html=1;strokeColor=default;container=0;" parent="1" vertex="1">
          <mxGeometry x="562" y="40" width="8" height="20" as="geometry" />
        </mxCell>
        <mxCell id="tL1ipXAXYH468xp2Y8CK-305" value="" style="endArrow=open;html=1;rounded=0;exitX=1;exitY=0.5;exitDx=0;exitDy=0;entryX=0;entryY=0.5;entryDx=0;entryDy=0;endFill=0;strokeColor=#6c8ebf;align=center;verticalAlign=middle;fontFamily=Helvetica;fontSize=11;fontColor=default;labelBackgroundColor=default;fillColor=#dae8fc;" parent="1" source="tL1ipXAXYH468xp2Y8CK-272" target="tL1ipXAXYH468xp2Y8CK-297" edge="1">
          <mxGeometry width="50" height="50" relative="1" as="geometry">
            <mxPoint x="500" y="-10" as="sourcePoint" />
            <mxPoint x="550" y="-60" as="targetPoint" />
          </mxGeometry>
        </mxCell>
      </root>
    </mxGraphModel>
  </diagram>
</mxfile>
